<svg width="872" height="92" viewBox="0 0 872 92" fill="none" xmlns="http://www.w3.org/2000/svg">
<path d="M1 91H18.2307V81.0336H8.55733V72.8792H26.0903V86.7718H35.7637V63.8188H1V77.4094V30.2953H20.9514V54.4564M20.9514 54.4564H8.55733V36.6376H15.5101V46.906M20.9514 54.4564V19.1208M20.9514 7.04027V19.1208M20.9514 19.1208H8.55733M8.55733 19.1208H1V7.04027H8.55733V19.1208ZM8.55733 1H53.2967V26.0671H30.3224V11.2685H41.205V19.1208H35.7637V7.04027M47.5532 7.04027V44.1879H30.3224H66.5976V66.5369H53.2967V91H44.2279V81.0336H62.9701V91H70.5275V72.8792H75.6664V81.0336H83.2238V91H88.0605V72.8792H95.9201V91H102.571V81.0336H120.104V91H109.523V72.8792H102.571L105.593 19.1208H75.6664V7.04027H66.5976V15.4966H62.9701V1M90.7811 1V11.2685H147.915V3.71812H102.571V1H165.448V26.0671H130.684V51.1342H188.422V91H150.937V72.8792H177.842V86.7718H158.495V81.0336H165.448V63.8188H137.032V86.7718H127.056V77.4094H130.684V91H143.682V40.5638H244.951V1H232.557V26.0671H237.998V7.04027V36.6376H219.256V15.4966H205.35V26.0671H212.001V7.04027H188.422V33.6175H177.842V1H224.697M224.697 1V11.2685M224.697 1H257.194M289.69 1H257.194M257.194 1V11.2685H276.994V19.1208H265.204V26.0671H286.063V33.6175H252.508V19.1208V58.6846H232.557V84.0537H208.675V72.8792L214.419 74.0872V91H224.697V77.4094H252.508V91H240.719M240.719 91V84.0537H247.671M240.719 91H273.669V84.0537H261.879V74.0872H311.757V15.4966H295.736V7.04027H302.991V11.2685H311.757V1H302.991H322.942V19.1208H316.594V7.04027V44.1879H335.639V15.4966H363.45V26.0671H351.66V30.2953H368.286V11.2685H348.335V3.71812H329.29V11.2685H338.359V1H406.678V7.04027H382.645M358.613 7.04027H382.645M382.645 7.04027V54.4564H351.66V74.0872L335.639 72.8792V91H322.942V77.4094H329.29V86.7718H307.828V81.0336H282.737V91H299.363V84.0537H289.69V86.7718V58.6846H421.188V1H440.232V22.745H426.327V7.04027M426.327 7.04027H432.372V15.4966M426.327 7.04027V44.1879V77.4094H387.331V91H373.425V86.7718H382.645V81.0336H363.45V91H358.613V72.8792H354.985V91H341.08V81.0336H348.335V86.7718V44.1879H459.579V91H432.372V84.0537H440.232V86.7718H447.789V74.0872L436 72.8792V36.6376H485.576V1H474.391V11.2685H480.135V22.745H464.113V11.2685H456.858V26.0671H447.789M447.789 26.0671V1H464.113M447.789 26.0671V58.6846H513.992V91H502.202V81.0336H506.434V86.7718V72.8792M506.434 72.8792H480.135V91H493.738V81.0336H485.576V86.7718M506.434 72.8792V36.6376V15.4966H493.738V1H502.202V11.2685H510.062V1H513.992V22.745H522.456V1H534.548V11.2685H540.593V1H587.449V36.6376H552.988M552.988 36.6376V7.04027H581.705V26.0671H562.963V19.1208H571.427M552.988 36.6376H528.199V91H540.593V84.0537H534.548V74.0872H546.942V77.4094H552.988V84.0537H546.942V91H562.963V72.8792H552.988H571.427V58.6846H578.985V66.5369H575.66V77.4094H571.427V86.7718H581.705V91H575.66H592.286M608.912 91H592.286M592.286 91V77.4094H587.449H598.18M608.912 77.4094H598.18M598.18 77.4094V66.5369H587.449H623.573M659.697 66.5369H623.573M623.573 66.5369V84.0537H605.284H630.828M656.372 84.0537H630.828M630.828 84.0537V91H675.719V81.0336H638.839V72.8792L684.183 74.0872V86.7718H694.158V81.0336H689.322H699.449M709.575 81.0336H699.449M699.449 81.0336V91H737.991M737.991 91V72.8792L717.133 74.0872V84.0537H730.131V77.4094H721.365M737.991 91H743.735V58.6846H748.571V74.0872H758.849V84.0537H748.571V91H767.918V81.0336H776.987V91H786.056V74.0872H771.546V69.255H789.683V81.0336H800.566V86.7718H793.915V91H812.053V66.5369H800.566V72.8792H825.051V84.0537H819.61V91H843.794V77.4094H831.4H855.281V66.5369H864.35V86.7718H848.328V84.0537H855.281V91H871V1H843.794M843.794 1V26.0671H861.327V7.04027H848.328V19.1208H855.281V11.2685M843.794 1H819.61V22.594M835.632 44.1879H819.61V22.594M819.61 22.594L798.299 22.6695M776.987 22.745L798.299 22.6695M798.299 22.6695V11.8347M798.299 1V11.8347M798.299 11.8347L809.03 11.2685H780.614V1H767.918V11.8347L733.759 11.2685V1M733.759 1H758.849V7.04027H743.735M733.759 1V36.6376H706.552V22.594H712.901V30.2953H721.365V15.4966H694.158V11.2685H712.901V1H684.183V30.2953H694.158V41.1678H646.094V30.2953H653.047V36.6376H659.697V26.0671H635.514V1H638.839V15.4966H646.094V7.04027H653.047V19.1208H659.697V1H666.65M666.65 1V11.2685L678.742 11.8347V22.594H666.65V19.1208H672.393M666.65 1H623.573M623.573 1H615.865V33.6175H623.573V22.594H608.912V7.04027H595.006V44.1879H598.18V11.8347H623.573V1Z" stroke="url(#paint0_linear_1301_1321)"/>
<defs>
<linearGradient id="paint0_linear_1301_1321" x1="-10.0381" y1="45.9999" x2="907.125" y2="45.9999" gradientUnits="userSpaceOnUse">
<stop offset="0.671875" stop-color="#AC9168"/>
<stop offset="1" stop-color="#AC9168" stop-opacity="0"/>
</linearGradient>
</defs>
</svg>
