<svg width="10" height="5" viewBox="0 0 10 5" fill="none" xmlns="http://www.w3.org/2000/svg">
<path d="M4.99539 5C4.88971 5 4.7925 4.98392 4.70377 4.95176C4.61439 4.91959 4.52729 4.86407 4.44248 4.78518L0.147367 0.790097C0.0560302 0.70514 0.00709971 0.600765 0.000575651 0.476971C-0.00594841 0.353177 0.0429821 0.242733 0.147367 0.14564C0.251752 0.0485465 0.367228 0 0.493795 0C0.620361 0 0.735837 0.0485465 0.840222 0.14564L4.99539 4.01147L9.15057 0.14564C9.2419 0.0606832 9.35412 0.015171 9.48721 0.0091027C9.6203 0.00303437 9.73904 0.0485465 9.84342 0.14564C9.94781 0.242733 10 0.350143 10 0.467868C10 0.585594 9.94781 0.693003 9.84342 0.790097L5.54831 4.78518C5.4635 4.86407 5.3764 4.91959 5.28702 4.95176C5.19829 4.98392 5.10108 5 4.99539 5Z" fill="white"/>
</svg>
