<svg width="30" height="28" viewBox="0 0 30 28" fill="none" xmlns="http://www.w3.org/2000/svg">
<path d="M11.7858 26.32C11.7858 26.6523 11.6916 26.9771 11.515 27.2534C11.3384 27.5296 11.0874 27.745 10.7937 27.8721C10.5 27.9993 10.1769 28.0325 9.86512 27.9677C9.55336 27.9029 9.26699 27.7429 9.04223 27.5079C8.81746 27.273 8.6644 26.9736 8.60239 26.6478C8.54037 26.3219 8.5722 25.9841 8.69384 25.6771C8.81548 25.3701 9.02148 25.1077 9.28577 24.9231C9.55007 24.7385 9.8608 24.64 10.1787 24.64C10.6049 24.64 11.0137 24.817 11.3151 25.1321C11.6165 25.4471 11.7858 25.8744 11.7858 26.32ZM24.1074 24.64C23.7895 24.64 23.4788 24.7385 23.2145 24.9231C22.9502 25.1077 22.7442 25.3701 22.6225 25.6771C22.5009 25.9841 22.4691 26.3219 22.5311 26.6478C22.5931 26.9736 22.7462 27.273 22.9709 27.5079C23.1957 27.7429 23.4821 27.9029 23.7938 27.9677C24.1056 28.0325 24.4287 27.9993 24.7224 27.8721C25.0161 27.745 25.2671 27.5296 25.4437 27.2534C25.6203 26.9771 25.7145 26.6523 25.7145 26.32C25.7145 25.8744 25.5452 25.4471 25.2438 25.1321C24.9424 24.817 24.5336 24.64 24.1074 24.64ZM29.9762 6.3252L26.1565 19.3032C25.9899 19.8768 25.6508 20.379 25.1895 20.7351C24.7281 21.0913 24.1692 21.2823 23.5957 21.28H10.7238C10.142 21.2781 9.57659 21.0791 9.11223 20.7129C8.64788 20.3466 8.30965 19.8328 8.14829 19.2486L3.30405 1.526C3.27201 1.40893 3.20435 1.30596 3.1113 1.2327C3.01826 1.15944 2.9049 1.11987 2.78842 1.12H0.535719C0.393638 1.12 0.257375 1.061 0.156908 0.95598C0.0564416 0.850959 0 0.708521 0 0.56C0 0.411479 0.0564416 0.269041 0.156908 0.16402C0.257375 0.0589999 0.393638 0 0.535719 0H2.78842C3.13738 0.00105915 3.47661 0.120325 3.75526 0.339919C4.0339 0.559512 4.23695 0.867601 4.33397 1.218L5.5313 5.6H29.4645C29.5484 5.60004 29.6311 5.62066 29.7059 5.6602C29.7808 5.69974 29.8457 5.75708 29.8954 5.82763C29.9452 5.89818 29.9784 5.97995 29.9925 6.06637C30.0065 6.15279 30.0009 6.24145 29.9762 6.3252ZM28.7386 6.72H5.83666L9.17687 18.942C9.27394 19.2926 9.47719 19.6009 9.75611 19.8205C10.035 20.0401 10.3746 20.1592 10.7238 20.16H23.5957C23.9398 20.1614 24.275 20.0467 24.5518 19.8331C24.8285 19.6195 25.0319 19.3183 25.1319 18.9742L28.7386 6.72Z" fill="#AC9168"/>
</svg>
