<svg width="110" height="37" viewBox="0 0 110 37" fill="none" xmlns="http://www.w3.org/2000/svg">
<path d="M0 22.2963H66.2136V1H39.9723V36H110" stroke="#AC9168"/>
<mask id="path-2-inside-1_543_351" fill="white">
<path d="M51.1863 17.2598L46.1624 12.5636L46.8841 11.8898L51.1863 15.9114L60.4416 7.25977L61.1624 7.93349L51.1863 17.2598Z"/>
</mask>
<path d="M51.1863 17.2598L46.1624 12.5636L46.8841 11.8898L51.1863 15.9114L60.4416 7.25977L61.1624 7.93349L51.1863 17.2598Z" fill="#AC9168"/>
<path d="M51.1863 17.2598L50.5034 17.9903L51.1863 18.6287L51.8692 17.9903L51.1863 17.2598ZM46.1624 12.5636L45.48 11.8325L44.6974 12.563L45.4795 13.2941L46.1624 12.5636ZM46.8841 11.8898L47.567 11.1593L46.8846 10.5214L46.2017 11.1588L46.8841 11.8898ZM51.1863 15.9114L50.5034 16.6419L51.1863 17.2802L51.8692 16.6419L51.1863 15.9114ZM60.4416 7.25977L61.1245 6.52923L60.4416 5.8909L59.7587 6.52923L60.4416 7.25977ZM61.1624 7.93349L61.8453 8.66399L62.6267 7.93345L61.8452 7.20296L61.1624 7.93349ZM51.8692 16.5292L46.8452 11.833L45.4795 13.2941L50.5034 17.9903L51.8692 16.5292ZM46.8447 13.2946L47.5665 12.6208L46.2017 11.1588L45.48 11.8325L46.8447 13.2946ZM46.2012 12.6204L50.5034 16.6419L51.8692 15.1808L47.567 11.1593L46.2012 12.6204ZM51.8692 16.6419L61.1245 7.9903L59.7587 6.52923L50.5034 15.1808L51.8692 16.6419ZM59.7587 7.9903L60.4795 8.66402L61.8452 7.20296L61.1245 6.52923L59.7587 7.9903ZM60.4794 7.20299L50.5034 16.5293L51.8692 17.9903L61.8453 8.66399L60.4794 7.20299Z" fill="#AC9168" mask="url(#path-2-inside-1_543_351)"/>
</svg>
