<svg width="1442" height="508" viewBox="0 0 1442 508" fill="none" xmlns="http://www.w3.org/2000/svg">
<path d="M34.5933 483.074H91.2507V507H1V447.95H114.816V483.074H128.354V392.972H144.9V447.95H165.958V415.37H181V483.074H222.616V447.95H243.173V426.569H261.223V440.823H291.808V426.569H275.262V456.095H309.858V403.153H332.922V373.628H345.457V392.972H359.496V360.901H317.88V346.648H1219.89V324.249H1247.46V335.449H1233.92V346.648H1261.5V277.926H1308.63V249.928H1271.03M1271.03 249.928V265.199H1296.1M1271.03 249.928H1337.46M1403.9 249.928H1337.46M1337.46 249.928V231.602M1337.46 213.276V231.602M1337.46 231.602H1377.82V175.606H1349.75V213.276H1360.78V134.881H1396.88V82.4487H1377.82V109.429H1337.46V61.5775H1421.95V152.698V1H1441V220.402H1429.97V18.3078" stroke="url(#paint0_linear_336_195)"/>
<defs>
<linearGradient id="paint0_linear_336_195" x1="721" y1="1" x2="721" y2="507" gradientUnits="userSpaceOnUse">
<stop offset="0.671875" stop-color="#AC9168"/>
<stop offset="1" stop-color="#AC9168" stop-opacity="0"/>
</linearGradient>
</defs>
</svg>
