<svg width="24" height="32" viewBox="0 0 24 32" fill="none" xmlns="http://www.w3.org/2000/svg">
<path d="M11.6065 1C8.69115 1 5.89519 2.20107 3.83373 4.33898C1.77226 6.4769 0.614136 9.37653 0.614136 12.4V13.2308C1.05917 19.4769 6.0584 24.5 11.6065 31C17.3994 24.2154 22.5989 19.0769 22.5989 12.4C22.5989 9.37653 21.4407 6.4769 19.3793 4.33898C17.3178 2.20107 14.5219 1 11.6065 1ZM11.6065 6.92308C12.6528 6.92308 13.6756 7.24494 14.5454 7.84794C15.4153 8.45094 16.0931 9.30797 16.4931 10.3106C16.8932 11.3132 16.9975 12.4164 16.7928 13.4805C16.5882 14.5446 16.0838 15.5219 15.3434 16.2886C14.6031 17.0554 13.66 17.5771 12.6337 17.7879C11.6073 17.9986 10.5438 17.8889 9.57754 17.4726C8.61132 17.0563 7.78588 16.3521 7.20567 15.4492C6.62545 14.5462 6.31654 13.4851 6.318 12.4C6.31997 10.9467 6.87801 9.55367 7.86959 8.52676C8.86116 7.49986 10.2052 6.92308 11.6065 6.92308Z" stroke="#AC9168" stroke-linecap="round" stroke-linejoin="round"/>
</svg>
