<svg width="30" height="30" viewBox="0 0 30 30" fill="none" xmlns="http://www.w3.org/2000/svg">
<path d="M14.1667 22.5H15.8333V15.8333H22.5V14.1667H15.8333V7.5H14.1667V14.1667H7.5V15.8333H14.1667V22.5ZM15.005 30C12.9317 30 10.9817 29.6067 9.155 28.82C7.32944 28.0322 5.74111 26.9633 4.39 25.6133C3.03889 24.2644 1.96944 22.6778 1.18167 20.8533C0.393889 19.0289 0 17.0794 0 15.005C0 12.9317 0.393333 10.9817 1.18 9.155C1.96778 7.32944 3.03667 5.74111 4.38667 4.39C5.73556 3.03889 7.32222 1.96944 9.14667 1.18167C10.9711 0.393889 12.9206 0 14.995 0C17.0683 0 19.0183 0.393333 20.845 1.18C22.6706 1.96778 24.2589 3.03667 25.61 4.38667C26.9611 5.73556 28.0306 7.32222 28.8183 9.14667C29.6061 10.9711 30 12.9206 30 14.995C30 17.0683 29.6067 19.0183 28.82 20.845C28.0322 22.6706 26.9633 24.2589 25.6133 25.61C24.2644 26.9611 22.6778 28.0306 20.8533 28.8183C19.0289 29.6061 17.0794 30 15.005 30ZM15 28.3333C18.7222 28.3333 21.875 27.0417 24.4583 24.4583C27.0417 21.875 28.3333 18.7222 28.3333 15C28.3333 11.2778 27.0417 8.125 24.4583 5.54167C21.875 2.95833 18.7222 1.66667 15 1.66667C11.2778 1.66667 8.125 2.95833 5.54167 5.54167C2.95833 8.125 1.66667 11.2778 1.66667 15C1.66667 18.7222 2.95833 21.875 5.54167 24.4583C8.125 27.0417 11.2778 28.3333 15 28.3333Z" fill="#AC9168"/>
</svg>
