<svg width="15" height="30" viewBox="0 0 15 30" fill="none" xmlns="http://www.w3.org/2000/svg">
<path d="M0 14.9862C0 14.6691 0.0482451 14.3775 0.144732 14.1113C0.241218 13.8432 0.407792 13.5819 0.644457 13.3274L12.6297 0.442101C12.8846 0.168091 13.1977 0.0212991 13.5691 0.00172695C13.9405 -0.0178452 14.2718 0.128946 14.5631 0.442101C14.8544 0.755256 15 1.10168 15 1.48138C15 1.86108 14.8544 2.20751 14.5631 2.52067L2.96559 14.9862L14.5631 27.4517C14.818 27.7257 14.9545 28.0624 14.9727 28.4616C14.9909 28.8609 14.8544 29.2171 14.5631 29.5303C14.2718 29.8434 13.9496 30 13.5964 30C13.2432 30 12.921 29.8434 12.6297 29.5303L0.644457 16.6449C0.407792 16.3905 0.241218 16.1292 0.144732 15.8611C0.0482451 15.5949 0 15.3033 0 14.9862Z" fill="#AC9168"/>
</svg>
