<svg width="439" height="230" viewBox="0 0 439 230" fill="none" xmlns="http://www.w3.org/2000/svg">
<path d="M58 193V206.987H77.2893V193H105.58V202.86H91.4349V216.159H141.587V206.987M141.587 206.987H105.58V212.032H124.87M141.587 206.987V229H105.58V223.038H58V229H189.81M238.677 229L189.81 229M189.81 229V200.108L166.663 200.108V223.038H179.523V206.987H223.245V193H209.1M209.1 193V202.86M209.1 193H263.753V209.28H247.679V202.86H238.677V216.159H209.1V223.038H263.753V216.159H292.044V229H315.191V212.032H279.184V202.86H304.904V209.28H292.044V196.669H333.195V202.86H324.193V209.28H346.054V196.669H376.274V216.159H333.195V229H376.274M376.274 229V220.745H346.054V225.79H362.129M376.274 229H407.137V209.28H390.42V216.159H418.711V206.987H390.42V200.108H438V223.038M438 223.038V229H418.711V223.038H438Z" stroke="url(#paint0_linear_1063_1236)" stroke-width="0.666939"/>
<path d="M-8.64267e-07 229H22.535V217.426H-8.64267e-07L-8.64267e-07 200.452H15.8853L15.8853 208.939H37.3121L37.3121 178.848H22.535M22.535 178.848V200.452H30.6624L30.6624 188.878M22.535 178.848H58V200.452H48.3949V229H58L58 149.914M58 120.594L58 149.914M58 149.914H11.4522V163.802H48.3949V156.086H22.535L22.535 129.853H-8.64267e-07V138.34M-8.64267e-07 138.34H15.8853M-8.64267e-07 138.34V105.548H26.2293V115.193H15.8853V120.594H37.3121V138.34H48.3949V105.548H37.3121V88.5736H58L58 74.6853H30.6624V96.2893H15.8853L15.8853 80.8579H26.2293V88.5736H5.91083L5.91083 63.8832H15.8853V69.2843H26.2293V56.1675H5.91083V38.0355L37.3121 38.0355L37.3121 63.8832H58V38.0355M58 38.0355H44.7006V56.1675H52.828V46.5228M58 38.0355L58 19.5178L26.2293 19.5178V29.5482H37.3121V12.5736L22.535 12.5736V29.5482L11.4522 29.5482V1L48.3949 1M48.3949 1L58 1V12.5736L48.3949 12.5736V1Z" stroke="url(#paint1_linear_1063_1236)" stroke-width="0.666939"/>
<defs>
<linearGradient id="paint0_linear_1063_1236" x1="438" y1="211" x2="58" y2="211" gradientUnits="userSpaceOnUse">
<stop offset="0.0677083" stop-color="#AC9168" stop-opacity="0"/>
<stop offset="0.436458" stop-color="#AC9168"/>
</linearGradient>
<linearGradient id="paint1_linear_1063_1236" x1="29" y1="1" x2="29" y2="229" gradientUnits="userSpaceOnUse">
<stop offset="0.0677083" stop-color="#AC9168" stop-opacity="0"/>
<stop offset="0.436458" stop-color="#AC9168"/>
</linearGradient>
</defs>
</svg>
