<svg width="321" height="512" viewBox="0 0 321 512" fill="none" xmlns="http://www.w3.org/2000/svg">
<path d="M321 511H280.835M240.671 511H280.835M280.835 511V478.842H306.075M306.075 478.842V500.951H293.785V491.906M306.075 478.842H238.695M171.315 478.842H238.695M238.695 478.842V491.906H213.016V511H195.458L194.58 486.882H134.004V446.182H158.147V456.232H147.612V471.808H184.484V438.143H171.315V454.975H184.484V426.084H112.934V456.232H96.9122M80.8903 456.232H96.9122M96.9122 456.232V471.808H119.957V500.951H147.612V511H171.315H88.7915M45.3347 511H88.7915M88.7915 511V491.906H106.789V500.951H70.3553V478.842H45.3347V389.404H56.3086V446.182H70.3553V374.33H25.1427L24.2647 433.118H0.999998V389.404M0.999998 389.404H14.6077V418.044M0.999998 389.404V451.207M0.999998 478.842V451.207M0.999998 451.207H25.1427V491.906H14.6077V511H25.1427H0.999998V500.951M24.2647 374.33V335.138M24.2647 295.946V335.138M24.2647 335.138H0.999998V251.227H14.6077V283.887M14.6077 316.547V283.887M14.6077 283.887H45.3347V335.138H65.0878V316.547H56.3086H80.8903V295.946H112.934V316.547H96.9122V283.887H123.469V335.138H96.9122V389.404H123.469V374.33H147.612V402.468H80.8903L162.536 403.473V355.739H143.003M123.469 355.739H143.003M143.003 355.739V267.808H70.3553V251.227H88.7915V261.778H123.469V239.167H33.0439V261.778H50.1632V221.079H14.6077V233.138H0.999998V185.404H14.6077V201.985H24.2647L25.1427 160.281H33.0439V178.369H45.3347V201.985H56.3086V168.32H45.3347V153.246H80.8903V221.079H70.3553V201.985H88.7915V112.547H63.5514M38.3114 112.547H63.5514M63.5514 112.547V133.65H24.2647V90.9409H14.6077V153.246H0.999998V56.7734H38.3114V80.8916H80.8903V56.7734H63.5514V69.8375V42.7044H24.2647V29.1379H88.7915V20.0936H10.2181V42.7044V1H45.3347V12.0542H70.3553V1H134.004" stroke="#AC9168"/>
</svg>
