<svg width="439" height="230" viewBox="0 0 439 230" fill="none" xmlns="http://www.w3.org/2000/svg">
<path d="M381 37V23.0127H361.711V37H333.42V27.1401H347.565V13.8408L297.413 13.8408V23.0127M297.413 23.0127L333.42 23.0127V17.9682L314.13 17.9682M297.413 23.0127V1L333.42 1V6.96178L381 6.96178V1L249.19 1M200.323 1L249.19 1M249.19 1V29.8917H272.337V6.96178L259.477 6.96178V23.0127L215.755 23.0127V37H229.9M229.9 37V27.1401M229.9 37H175.247V20.7197H191.321V27.1401H200.323V13.8408L229.9 13.8408V6.96178L175.247 6.96178V13.8408L146.956 13.8408V1L123.809 1V17.9682L159.816 17.9682V27.1401L134.096 27.1401V20.7197L146.956 20.7197V33.3312H105.805V27.1401H114.807V20.7197H92.9459V33.3312H62.7259V13.8408L105.805 13.8408V1L62.7259 1M62.7259 1V9.25478L92.9459 9.25478V4.21019H76.8714M62.7259 1L31.8629 1V20.7197L48.5804 20.7197V13.8408L20.2893 13.8408V23.0127L48.5804 23.0127V29.8917L1 29.8917L1 6.96178M1 6.96178L1 1L20.2893 1V6.96178L1 6.96178Z" stroke="url(#paint0_linear_1063_1237)" stroke-width="0.666939"/>
<path d="M439 1H416.465V12.5736H439V29.5482H423.115V21.0609H401.688V51.1523H416.465M416.465 51.1523V29.5482H408.338V41.1218M416.465 51.1523H381V29.5482H390.605V1H381V80.0863M381 109.406V80.0863M381 80.0863H427.548V66.198H390.605V73.9137H416.465V100.147H439V91.6599M439 91.6599H423.115M439 91.6599V124.452H412.771V114.807H423.115V109.406H401.688V91.6599H390.605V124.452H401.688V141.426H381V155.315H408.338V133.711H423.115V149.142H412.771V141.426H433.089V166.117H423.115V160.716H412.771V173.832H433.089V191.964H401.688V166.117H381V191.964M381 191.964H394.299V173.832H386.172V183.477M381 191.964V210.482H412.771V200.452H401.688V217.426H416.465V200.452H427.548V229H390.605M390.605 229H381V217.426H390.605V229Z" stroke="url(#paint1_linear_1063_1237)" stroke-width="0.666939"/>
<defs>
<linearGradient id="paint0_linear_1063_1237" x1="1" y1="19" x2="381" y2="19" gradientUnits="userSpaceOnUse">
<stop offset="0.0677083" stop-color="#AC9168" stop-opacity="0"/>
<stop offset="0.436458" stop-color="#AC9168"/>
</linearGradient>
<linearGradient id="paint1_linear_1063_1237" x1="410" y1="229" x2="410" y2="1" gradientUnits="userSpaceOnUse">
<stop offset="0.0677083" stop-color="#AC9168" stop-opacity="0"/>
<stop offset="0.436458" stop-color="#AC9168"/>
</linearGradient>
</defs>
</svg>
