<svg width="321" height="512" viewBox="0 0 321 512" fill="none" xmlns="http://www.w3.org/2000/svg">
<path d="M0 0.5H40.1646M80.5 0.5H40.1646M40.1646 0.5V33.1576H14.9246M14.9246 33.1576V11.0493H27.2154V20.0936M14.9246 33.1576H82.3045M149.685 33.1576H82.3045M82.3045 33.1576V20.0936H107.984V1H126.42V25.1182H186.996V65.8177H162.853V55.7685H173.388V40.1921H136.516V73.8571H147.929V60.7931H107.984V85.9163H208.066V55.7685H224.088M240.11 55.7685H224.088M224.088 55.7685V40.1921H201.043V11.0493H173.388V1L149.685 0.5H232.208M275.665 0.5H232.208M232.208 0.5V20.0936H214.211V11.0493H250.645V33.1576H275.665V122.596H264.691V65.8177H250.645V137.67H295.857L296.735 78.8818H320V122.596M320 122.596H306.392V93.9557M320 122.596V60.7931M320 33.1576V60.7931M320 60.7931H295.857V20.0936H306.392L306 0.5H295.857H308H320V11.0493M296.735 137.67V176.862M296.735 216.054V176.862M296.735 176.862H320V260.773H306.392V228.113M306.392 195.453V228.113M306.392 228.113H275.665V176.862H255.912V195.453H264.691H240.11V216.054H208.066V195.453H224.088V228.113H197.531V176.862H224.088V122.596H197.531V137.67H173.388V109.532H240.11L158.464 108.527V156.261H177.997M197.531 156.261H177.997M177.997 156.261V244.192H250.645V260.773H232.208V250.222H197.531V272.833H287.956V250.222H270.837V290.921H306.392V278.862H320V326.596H306.392V310.015H296.735L295.857 351.719H287.956V333.631H275.665V310.015H264.691V343.68H275.665V358.754H240.11V290.921H250.645V310.015H232.208V399.453H257.449M282.689 399.453H257.449M257.449 399.453V378.35H296.735V421.059H306.392V358.754H320V455.227H282.689V431.108H240.11V455.227H257.449V442.163V469.296H296.735V482.862H232.208V491.906H310.782V469.296V511H275.665V499.946H250.645V511H186.996" stroke="#AC9168"/>
<mask id="path-2-inside-1_1233_1223" fill="white">
<path d="M250 0H307V34H250V0Z"/>
</mask>
<path d="M250 0H307V34H250V0Z" fill="#131719"/>
<path d="M250 1H307V-1H250V1ZM307 33H250V35H307V33Z" fill="#AC9168" mask="url(#path-2-inside-1_1233_1223)"/>
</svg>
