<svg width="87" height="501" viewBox="0 0 87 501" fill="none" xmlns="http://www.w3.org/2000/svg">
<path d="M86 1H42.523V26.5256H86V52.5517H1V77.0762H30.7989V62.0612H63.5287V97.0963H1V121.621H86V194.694H42.523V147.146H63.5287V173.173H75.2529V135.134H30.7989V220.72H1V159.659V243.743H42.523V220.72H63.5287V283.283H86V319.819H42.523M42.523 319.819H1V267.767H42.523V283.283H12.7241V304.804M42.523 319.819V338.338H1V354.855H63.5287V338.338H86V386.887H42.523V405.405H63.5287V425.425H30.7989V370.37H12.7241V447.948H75.2529V464.965H1V386.887V500H86" stroke="url(#paint0_linear_1257_871)" stroke-width="2"/>
<defs>
<linearGradient id="paint0_linear_1257_871" x1="43.5" y1="1" x2="43.5" y2="500" gradientUnits="userSpaceOnUse">
<stop stop-color="#AC9168"/>
<stop offset="1" stop-color="#AC9168" stop-opacity="0"/>
</linearGradient>
</defs>
</svg>
