<svg width="361" height="512" viewBox="0 0 361 512" fill="none" xmlns="http://www.w3.org/2000/svg">
<path d="M0 1H45.1852M90.3704 1H45.1852M45.1852 1V33.1576H16.7901M16.7901 33.1576V11.0493H30.6173V20.0936M16.7901 33.1576H92.5926M168.395 33.1576H92.5926M92.5926 33.1576V20.0936H121.481V1H141.235L142.222 25.1182H210.37V65.8177H183.21V55.7685H195.062V40.1921H153.58V73.8571H166.42V60.7931H121.481V85.9163H234.074V55.7685H252.099M270.123 55.7685H252.099M252.099 55.7685V40.1921H226.173V11.0493H195.062V1H168.395H261.235M310.123 1H261.235M261.235 1V20.0936H240.988V11.0493H281.975V33.1576H310.123V122.596H297.778V65.8177H281.975V137.67H332.84L333.827 78.8818H360V122.596M360 122.596H344.691V93.9557M360 122.596V60.7931M360 33.1576V60.7931M360 60.7931H332.84V20.0936H344.691V1H332.84H360V11.0493M333.827 137.67V176.862M333.827 216.054V176.862M333.827 176.862H360V260.773H344.691V228.113M344.691 195.453V228.113M344.691 228.113H310.123V176.862H287.901V195.453H297.778H270.123V216.054H234.074V195.453H252.099V228.113H222.222V176.862H252.099V122.596H222.222V137.67H195.062V109.532H270.123L178.272 108.527V156.261H200.247M222.222 156.261H200.247M200.247 156.261V244.192H281.975V260.773H261.235V250.222H222.222V272.833H323.951V250.222H304.691V290.921H344.691V278.862H360V326.596H344.691V310.015H333.827L332.84 351.719H323.951V333.631H310.123V310.015H297.778V343.68H310.123V358.754H270.123V290.921H281.975V310.015H261.235V399.453H289.63M318.025 399.453H289.63M289.63 399.453V378.35H333.827V421.059H344.691V358.754H360V455.227H318.025V431.108H270.123V455.227H289.63V442.163V469.296H333.827V482.862H261.235V491.906H349.63V469.296V511H310.123V499.946H281.975V511H210.37" stroke="url(#paint0_linear_376_33)"/>
<defs>
<linearGradient id="paint0_linear_376_33" x1="180" y1="1" x2="180" y2="511" gradientUnits="userSpaceOnUse">
<stop offset="0.432292" stop-color="#AC9168"/>
<stop offset="1" stop-opacity="0"/>
</linearGradient>
</defs>
</svg>
