<svg width="351" height="512" viewBox="0 0 351 512" fill="none" xmlns="http://www.w3.org/2000/svg">
<path d="M351 511H307.07M263.14 511H307.07M307.07 511V478.842H334.676M334.676 478.842V500.951H321.233V491.906M334.676 478.842H260.979M187.283 478.842H260.979M260.979 478.842V491.906H232.893V511H213.689L212.728 486.882H146.473V446.182H172.879V456.232H161.357V471.808H201.686V438.143H187.283V454.975H201.686V426.084H123.428V456.232H105.904M88.38 456.232H105.904M105.904 456.232V471.808H131.11V500.951H161.357V511H187.283H97.0219M49.4911 511H97.0219M97.0219 511V491.906H116.706V500.951H76.8573V478.842H49.4911V389.404H61.4938V446.182H76.8573V374.33H27.406L26.4458 433.118H1V389.404M1 389.404H15.8834V418.044M1 389.404V451.207M1 478.842V451.207M1 451.207H27.406V491.906H15.8834V511H27.406H1V500.951M26.4458 374.33V335.138M26.4458 295.946V335.138M26.4458 335.138H1V251.227H15.8834V283.887M15.8834 316.547V283.887M15.8834 283.887H49.4911V335.138H71.096V316.547H61.4938H88.38V295.946H123.428V316.547H105.904V283.887H134.951V335.138H105.904V389.404H134.951V374.33H161.357V402.468H88.38L177.68 403.473V355.739H156.315M134.951 355.739H156.315M156.315 355.739V267.808H76.8573V251.227H97.0219V261.778H134.951V239.167H36.048V261.778H54.7723V221.079H15.8834V233.138H1V185.404H15.8834V201.985H26.4458L27.406 160.281H36.048V178.369H49.4911V201.985H61.4938V168.32H49.4911V153.246H88.38V221.079H76.8573V201.985H97.0219V112.547H69.4156M41.8093 112.547H69.4156M69.4156 112.547V133.65H26.4458V90.9409H15.8834V153.246H1V56.7734H41.8093V80.8916H88.38V56.7734H69.4156V69.8375V42.7044H26.4458V29.1379H97.0219V20.0936H11.0823V42.7044V1H49.4911V12.0542H76.8573V1H146.473" stroke="url(#paint0_linear_376_34)"/>
<defs>
<linearGradient id="paint0_linear_376_34" x1="176" y1="511" x2="176" y2="1" gradientUnits="userSpaceOnUse">
<stop offset="0.571875" stop-color="#AC9168"/>
<stop offset="1" stop-color="#AC9168" stop-opacity="0"/>
</linearGradient>
</defs>
</svg>
