<svg width="130" height="225" viewBox="0 0 130 225" fill="none" xmlns="http://www.w3.org/2000/svg">
<path d="M130 224.201H1V0.201172" stroke="url(#paint0_linear_960_469)" stroke-width="0.666939"/>
<path d="M45.2783 224.113H28.1828V213.453H45.2783V197.819H33.2274V205.636H16.9726V177.92H28.1828M28.1828 177.92V197.819H22.0172V187.159M28.1828 177.92H1.27832V197.819H8.56494V224.113H1.27832V151.271M1.27832 124.266V151.271M1.27832 151.271H36.5904V164.063H8.56494V156.956H28.1828V132.793H45.2783V140.611M45.2783 140.611H33.2274M45.2783 140.611V110.408H25.3802V119.291H33.2274V124.266H16.9726V140.611H8.56494V110.408H16.9726V94.7732H1.27832V81.9813H22.0172V101.88H33.2274V87.6666H25.3802V94.7732H40.7942V72.0321H33.2274V77.0067H25.3802V64.9255H40.7942V48.225H16.9726V72.0321H1.27832V48.225M1.27832 48.225H11.3675V64.9255H5.20189V56.0422M1.27832 48.225V31.1691H25.3802V40.4077H16.9726V24.7732H28.1828V40.4077H36.5904V14.1133H8.56494M8.56494 14.1133H1.27832V24.7732H8.56494V14.1133Z" stroke="url(#paint1_linear_960_469)" stroke-width="0.666939"/>
<defs>
<linearGradient id="paint0_linear_960_469" x1="57.4026" y1="182.024" x2="20.6344" y2="2.99279" gradientUnits="userSpaceOnUse">
<stop stop-color="#AC9168"/>
<stop offset="1" stop-opacity="0"/>
</linearGradient>
<linearGradient id="paint1_linear_960_469" x1="23.2783" y1="14.1133" x2="23.2783" y2="224.113" gradientUnits="userSpaceOnUse">
<stop offset="0.0677083" stop-color="#AC9168" stop-opacity="0"/>
<stop offset="0.436458" stop-color="#AC9168"/>
</linearGradient>
</defs>
</svg>
