<svg width="221" height="231" viewBox="0 0 221 231" fill="none" xmlns="http://www.w3.org/2000/svg">
<path d="M0.512451 21.73H32.6526V6.05891H6.5559V13.8944H25.5104H0.512451V0.360352H52.4312V6.05891H42.5419V21.73H66.441V13.8944H57.3758V0.360352H88.9666V6.05891H74.1326H97.757V13.8944H79.6267V21.73H107.097V0.360352H113.964V6.05891H123.854V13.8944H137.039V0.360352H129.348V21.73H149.126V10.3328H177.421V37.0449H167.531V56.2775H183.464V21.73H194.452V37.0449H201.869V10.3328H186.761V0.360352H159.29H211.758M211.758 0.360352V13.8944H220V0.360352M211.758 0.360352H220M220 0.360352V28.1408H209.011V57.5241M209.011 86.9073V57.5241M209.011 57.5241L220 56.2775V104.359H201.869V62.6884H191.705V77.6471V92.2497H177.421V70.5239H167.531V104.359H177.146M186.761 104.359H177.146M177.146 104.359V134.989H191.705M201.869 125.016H183.464V115.756H209.011V134.989H191.705M191.705 134.989V146.386H167.531V157.427H198.573V146.386H209.011V163.838H220V125.016V203.728H201.869V175.235H209.011V192.331H190.469M180.717 183.071H191.705V169.536H171.927V192.331H190.469M190.469 192.331V213.344H177.146V198.029H167.531V220.467H198.573V213.344H220V229.728H167.531" stroke="url(#paint0_linear_655_781)" stroke-width="0.666939"/>
<defs>
<linearGradient id="paint0_linear_655_781" x1="110.256" y1="0.360352" x2="110.256" y2="229.728" gradientUnits="userSpaceOnUse">
<stop offset="0.0677083" stop-color="#AC9168"/>
<stop offset="1" stop-color="#AC9168" stop-opacity="0"/>
</linearGradient>
</defs>
</svg>
