<svg width="30" height="30" viewBox="0 0 30 30" fill="none" xmlns="http://www.w3.org/2000/svg">
<path fill-rule="evenodd" clip-rule="evenodd" d="M15 15C18.6833 15 21.6667 12.0167 21.6667 8.33333C21.6667 4.65 18.6833 1.66667 15 1.66667C11.3167 1.66667 8.33333 4.65 8.33333 8.33333C8.33333 12.0167 11.3167 15 15 15ZM23.3333 8.33333C23.3333 12.9375 19.6042 16.6667 15 16.6667C10.3958 16.6667 6.66667 12.9375 6.66667 8.33333C6.66667 3.72917 10.3958 0 15 0C19.6042 0 23.3333 3.72917 23.3333 8.33333ZM2.68583 23.51C1.85 24.185 1.66667 24.6908 1.66667 25V28.3333H28.3333V25C28.3333 24.6917 28.15 24.1842 27.3133 23.51C26.4967 22.8508 25.2783 22.2225 23.8017 21.6792C20.85 20.5933 17.2942 20 15 20C12.7058 20 9.15 20.5933 6.19833 21.6792C4.72167 22.2225 3.50333 22.8508 2.68583 23.51ZM15 18.3333C9.99417 18.3333 0 20.8625 0 25V30H30V25C30 20.8625 20.0067 18.3333 15 18.3333Z" fill="#AC9168"/>
</svg>
