<svg width="30" height="30" viewBox="0 0 30 30" fill="none" xmlns="http://www.w3.org/2000/svg">
<path d="M26.2501 3H21.7502V0.75C21.7502 0.335816 21.4144 0 21.0002 0C20.586 0 20.2502 0.335816 20.2502 0.75V3H9.75049V0.75C9.75049 0.335816 9.41469 0 9.00051 0C8.58634 0 8.25053 0.335816 8.25053 0.75V3H3.74991C1.67977 3.0022 0.00219715 4.67981 0 6.75V26.25C0.00219715 28.3202 1.67977 29.9978 3.74991 30H26.2501C28.3203 29.9981 29.9981 28.3203 30 26.25V6.75C29.9981 4.67972 28.3203 3.00192 26.2501 3ZM28.5 26.25C28.4987 27.4921 27.4922 28.4986 26.2501 28.5H3.74991C2.50784 28.4986 1.50134 27.4921 1.49996 26.25V13.5H28.5V26.25ZM28.5 12H1.49996V6.75C1.50134 5.5079 2.50784 4.50137 3.74991 4.5H8.25053V6.75C8.25081 7.16391 8.58652 7.50027 9.00051 7.5C9.41441 7.49973 9.75077 7.164 9.75049 6.75V4.5H20.2502V6.75C20.2505 7.16391 20.5862 7.50027 21.0002 7.5C21.4141 7.49973 21.7505 7.164 21.7502 6.75V4.5H26.2501C27.4922 4.50137 28.4987 5.5079 28.5 6.75V12Z" fill="#AC9168"/>
</svg>
