<svg width="1440" height="151" viewBox="0 0 1440 151" fill="none" xmlns="http://www.w3.org/2000/svg">
<path d="M0 150H28.5V133.5H12.5V120H41.5V143H57.5V105H0V127.5V49.5H33V89.5M33 89.5H12.5V60H24V77M33 89.5V31M33 11V31M33 31H12.5M12.5 31H0V11H12.5V31ZM12.5 1H86.5V42.5H48.5V18H66.5V31H57.5V11M77 11V72.5H48.5H108.5V109.5H86.5V150H71.5V133.5H102.5V150H115V120H123.5V133.5H136V150H144V120H157V150H168V133.5H197V150H179.5V120H168L173 31H123.5V11H108.5V25H102.5V1M148.5 1V18H243V5.5H168V1H272V42.5H214.5V84H310V150H248V120H292.5V143H260.5V133.5H272V105H225V143H208.5V127.5H214.5V150H236V66.5H403.5V1H383V42.5H392V11V60H361V25H338V42.5H349V11H310V55H292.5V1H370M370 1V18M370 1H423.75M477.5 1H423.75M423.75 1V18H456.5V31H437V42.5H471.5V55H416V31V96.5H383V138.5H343.5V120L353 122V150H370V127.5H416V150H396.5M396.5 150V138.5H408M396.5 150H451V138.5H431.5V122H514V25H487.5V11H499.5V18H514V1H499.5H532.5V31H522V11V72.5H553.5V25H599.5V42.5H580V49.5H607.5V18H574.5V5.5H543V18H558V1H671V11H631.25M591.5 11H631.25M631.25 11V89.5H580V122L553.5 120V150H532.5V127.5H543V143H507.5V133.5H466V150H493.5V138.5H477.5V143V96.5H695V1H726.5V37H703.5V11M703.5 11H713.5V25M703.5 11V72.5V127.5H639V150H616V143H631.25V133.5H599.5V150H591.5V120H585.5V150H562.5V133.5H574.5V143V72.5H758.5V150H713.5V138.5H726.5V143H739V122L719.5 120V60H801.5V1H783V18H792.5V37H766V18H754V42.5H739M739 42.5V1H766M739 42.5V96.5H848.5V150H829V133.5H836V143V120M836 120H792.5V150H815V133.5H801.5V143M836 120V60V25H815V1H829V18H842V1H848.5V37H862.5V1H882.5V18H892.5V1H970V60H913M913 60V11H960.5V42.5H929.5V31H943.5M913 60H872V150H892.5V138.5H882.5V122H903V127.5H913V138.5H903V150H929.5V120H913H943.5V96.5H956V109.5H950.5V127.5H943.5V143H960.5V150H950.5H978M1005.5 150H978M978 150V127.5H970H987.75M1005.5 127.5H987.75M987.75 127.5V109.5H970H1029.75M1089.5 109.5H1029.75M1029.75 109.5V138.5H999.5H1041.75M1084 138.5H1041.75M1041.75 138.5V150H1116V133.5H1055V120L1130 122V143H1146.5V133.5H1138.5H1155.25M1172 133.5H1155.25M1155.25 133.5V150H1219M1219 150V120L1184.5 122V138.5H1206V127.5H1191.5M1219 150H1228.5V96.5H1236.5V122H1253.5V138.5H1236.5V150H1268.5V133.5H1283.5V150H1298.5V122H1274.5V114H1304.5V133.5H1322.5V143H1311.5V150H1341.5V109.5H1322.5V120H1363V138.5H1354V150H1394V127.5H1373.5H1413V109.5H1428V143H1401.5V138.5H1413V150H1439V1H1394M1394 1V42.5H1423V11H1401.5V31H1413V18M1394 1H1354V36.75M1380.5 72.5H1354V36.75M1354 36.75L1318.75 36.875M1283.5 37L1318.75 36.875M1318.75 36.875V18.9375M1318.75 1V18.9375M1318.75 18.9375L1336.5 18H1289.5V1H1268.5V18.9375L1212 18V1M1212 1H1253.5V11H1228.5M1212 1V60H1167V36.75H1177.5V49.5H1191.5V25H1146.5V18H1177.5V1H1130V49.5H1146.5V67.5H1067V49.5H1078.5V60H1089.5V42.5H1049.5V1H1055V25H1067V11H1078.5V31H1089.5V1H1101M1101 1V18L1121 18.9375V36.75H1101V31H1110.5M1101 1H1029.75M1029.75 1H1017V55H1029.75V36.75H1005.5V11H982.5V72.5H987.75V18.9375H1029.75V1Z" stroke="url(#paint0_linear_336_253)"/>
<defs>
<linearGradient id="paint0_linear_336_253" x1="719.5" y1="1" x2="719.5" y2="150" gradientUnits="userSpaceOnUse">
<stop offset="0.671875" stop-color="#AC9168"/>
<stop offset="1" stop-color="#AC9168" stop-opacity="0"/>
</linearGradient>
</defs>
</svg>
