<svg width="15" height="30" viewBox="0 0 15 30" fill="none" xmlns="http://www.w3.org/2000/svg">
<path d="M15 15.0138C15 15.3309 14.9518 15.6225 14.8553 15.8887C14.7588 16.1568 14.5922 16.4181 14.3555 16.6726L2.37029 29.5579C2.11542 29.8319 1.80229 29.9787 1.43091 29.9983C1.05953 30.0178 0.728199 29.8711 0.436919 29.5579C0.145639 29.2447 0 28.8983 0 28.5186C0 28.1389 0.145639 27.7925 0.436919 27.4793L12.0344 15.0138L0.436919 2.5483C0.182049 2.27429 0.0455131 1.93765 0.0273081 1.53837C0.00910312 1.1391 0.145639 0.782887 0.436919 0.469732C0.728199 0.156577 1.05043 0 1.4036 0C1.75678 0 2.07901 0.156577 2.37029 0.469732L14.3555 13.3551C14.5922 13.6095 14.7588 13.8708 14.8553 14.1389C14.9518 14.4051 15 14.6967 15 15.0138Z" fill="#AC9168"/>
</svg>
