<svg width="32" height="32" viewBox="0 0 32 32" fill="none" xmlns="http://www.w3.org/2000/svg">
<path d="M27.4494 17.4648C27.5149 16.9791 27.55 16.4899 27.5547 16C27.55 15.5101 27.5149 15.0209 27.4494 14.5352L30.7046 12.0523C30.8516 11.9429 30.952 11.7845 30.9867 11.6075C31.0213 11.4305 30.9878 11.2472 30.8925 11.0928L27.8103 5.88528C27.721 5.72908 27.5762 5.61009 27.4031 5.55073C27.23 5.49136 27.0406 5.49573 26.8705 5.56301L23.029 7.0718C22.2297 6.47743 21.3555 5.98515 20.4279 5.60696L19.849 1.62992C19.8235 1.45393 19.7332 1.293 19.5949 1.17711C19.4565 1.06122 19.2797 0.998286 19.0973 1.00004H12.9178C12.7353 0.998286 12.5585 1.06122 12.4202 1.17711C12.2819 1.293 12.1915 1.45393 12.166 1.62992L11.5871 5.60696C10.6583 5.98279 9.78388 6.47524 8.98602 7.0718L5.12945 5.56301C4.95944 5.49573 4.77003 5.49136 4.59694 5.55073C4.42385 5.61009 4.27902 5.72908 4.18974 5.88528L1.1075 11.0928C1.01218 11.2472 0.978654 11.4305 1.01333 11.6075C1.048 11.7845 1.14844 11.9429 1.29544 12.0523L4.54307 14.5352C4.47784 15.0209 4.44269 15.5101 4.43783 16C4.44244 16.4899 4.47758 16.9791 4.54307 17.4648L1.29544 19.9477C1.14844 20.0571 1.048 20.2155 1.01333 20.3925C0.978654 20.5695 1.01218 20.7528 1.1075 20.9072L4.18974 26.1147C4.27902 26.2709 4.42385 26.3899 4.59694 26.4493C4.77003 26.5086 4.95944 26.5043 5.12945 26.437L8.97098 24.9282C9.77034 25.5226 10.6445 26.0149 11.5721 26.393L12.151 30.3701C12.1765 30.5461 12.2668 30.707 12.4051 30.8229C12.5435 30.9388 12.7203 31.0017 12.9027 31H19.0672C19.2496 31.0017 19.4265 30.9388 19.5648 30.8229C19.7031 30.707 19.7934 30.5461 19.819 30.3701L20.3978 26.393C21.3267 26.0172 22.2011 25.5248 22.9989 24.9282L26.8405 26.437C27.0105 26.5043 27.1999 26.5086 27.373 26.4493C27.5461 26.3899 27.6909 26.2709 27.7802 26.1147L30.8624 20.9072C30.9577 20.7528 30.9913 20.5695 30.9566 20.3925C30.9219 20.2155 30.8215 20.0571 30.6745 19.9477L27.4494 17.4648ZM16 21.2588C14.9321 21.2602 13.8878 20.953 12.9992 20.3761C12.1105 19.7991 11.4175 18.9783 11.0078 18.0175C10.5981 17.0567 10.4902 15.9991 10.6976 14.9786C10.905 13.958 11.4185 13.0203 12.1731 12.2841C12.9277 11.5479 13.8894 11.0463 14.9367 10.8428C15.9839 10.6393 17.0696 10.743 18.0563 11.1408C19.0431 11.5386 19.8865 12.2127 20.48 13.0776C21.0734 13.9426 21.3902 14.9596 21.3902 16C21.3912 16.6902 21.2525 17.3739 20.982 18.0119C20.7116 18.6499 20.3147 19.2297 19.8141 19.7181C19.3135 20.2065 18.7189 20.594 18.0645 20.8583C17.41 21.1227 16.7085 21.2588 16 21.2588Z" stroke="#AC9168" stroke-linecap="round" stroke-linejoin="round"/>
</svg>
