<svg width="20" height="20" viewBox="0 0 20 20" fill="none" xmlns="http://www.w3.org/2000/svg">
<path d="M14.0792 1H5.78388C3.10721 1 0.937805 3.1713 0.937805 5.84982V14.1502C0.937805 16.8287 3.1076 19 5.78426 19H14.0789C16.7555 19 18.9253 16.8287 18.9253 14.1502V5.84982C18.9253 3.1713 16.7559 1 14.0792 1Z" stroke="#AC9168" stroke-width="1.25" stroke-miterlimit="10"/>
<path d="M9.9318 14.3451C12.3298 14.3451 14.2737 12.3998 14.2737 10.0002C14.2737 7.60055 12.3298 5.65527 9.9318 5.65527C7.53384 5.65527 5.5899 7.60055 5.5899 10.0002C5.5899 12.3998 7.53384 14.3451 9.9318 14.3451Z" stroke="#AC9168" stroke-width="1.25" stroke-miterlimit="10"/>
<path d="M15.2036 5.65485C15.7174 5.65485 16.1339 5.23806 16.1339 4.72391C16.1339 4.20977 15.7174 3.79297 15.2036 3.79297C14.6898 3.79297 14.2733 4.20977 14.2733 4.72391C14.2733 5.23806 14.6898 5.65485 15.2036 5.65485Z" fill="#AC9168"/>
</svg>
