<svg width="20" height="18" viewBox="0 0 20 18" fill="none" xmlns="http://www.w3.org/2000/svg">
<path d="M18.4938 8.14254L2.64253 0.137118C2.46879 0.047329 2.27108 0 2.06973 0C1.86838 0 1.67067 0.047329 1.49693 0.137118C1.32602 0.222698 1.18409 0.346978 1.08581 0.497128C0.987519 0.647277 0.936437 0.817852 0.937833 0.991241V17.0121C0.937109 17.1849 0.988511 17.3548 1.08676 17.5043C1.18502 17.6538 1.32658 17.7776 1.49693 17.8629C1.67067 17.9527 1.86838 18 2.06973 18C2.27108 18 2.46879 17.9527 2.64253 17.8629L18.4872 9.86329C18.663 9.77959 18.8099 9.65563 18.9125 9.50444C19.0152 9.35326 19.0697 9.18046 19.0704 9.00423C19.071 8.82801 19.0178 8.65488 18.9164 8.50309C18.8149 8.3513 18.6689 8.22646 18.4938 8.14171V8.14254ZM13.5412 6.4093L11.1377 8.53002L2.29781 0.731254L13.5412 6.4093ZM1.69338 16.8621V1.14123L10.6031 9.00167L1.69338 16.8621ZM2.29781 17.2721L11.1377 9.47331L13.5412 11.594L2.29781 17.2721ZM18.1179 9.28249L14.2212 11.2516L11.6713 9.00167L14.2212 6.75178L18.1264 8.72335C18.1844 8.75025 18.2329 8.79075 18.2665 8.84039C18.3001 8.89003 18.3175 8.94689 18.3168 9.0047C18.3161 9.06251 18.2974 9.11904 18.2626 9.16805C18.2279 9.21706 18.1785 9.25666 18.1198 9.28249H18.1179Z" fill="#AC9168"/>
</svg>
