<svg width="27" height="20" viewBox="0 0 27 20" fill="none" xmlns="http://www.w3.org/2000/svg">
<path d="M24.7979 1C25.5677 1 26.1485 1.57996 25.8379 2.65869L22.0696 17.9117C21.8062 18.9962 21.0431 19.2572 19.9896 18.7526L11.0012 13.0516C10.9663 13.0301 10.9379 13.0018 10.9183 12.969C10.8987 12.9363 10.8885 12.9 10.8885 12.8631C10.8885 12.8263 10.8987 12.79 10.9183 12.7572C10.9379 12.7244 10.9663 12.6961 11.0012 12.6746L21.3808 4.62476C21.8535 4.26518 21.2795 4.09119 20.6582 4.41597L7.63134 11.4741C7.59183 11.4962 7.54698 11.5103 7.50017 11.5154C7.45337 11.5204 7.40585 11.5162 7.36122 11.5031L1.83038 10.001C0.601305 9.69362 0.601305 8.96867 2.10726 8.45251L24.2374 1.12179C24.4129 1.04948 24.6034 1.00807 24.7979 1Z" stroke="#AC9168" stroke-width="0.9375" stroke-linecap="round" stroke-linejoin="round"/>
</svg>
