<svg width="18" height="17" viewBox="0 0 18 17" fill="none" xmlns="http://www.w3.org/2000/svg">
<path opacity="0.2" fill-rule="evenodd" clip-rule="evenodd" d="M9.49998 0.5C9.67688 0.500005 9.85062 0.546936 10.0035 0.636005C10.1563 0.725074 10.2828 0.853092 10.37 1.007L12.684 5.085L17.211 6.061C17.3817 6.09787 17.5397 6.17879 17.6694 6.29571C17.7991 6.41264 17.8959 6.56148 17.9503 6.72745C18.0046 6.89341 18.0145 7.0707 17.979 7.24168C17.9435 7.41265 17.8639 7.57136 17.748 7.702L14.642 11.204L15.13 15.897C15.1481 16.072 15.1197 16.2487 15.0477 16.4092C14.9757 16.5697 14.8627 16.7084 14.72 16.8112C14.5772 16.9141 14.4099 16.9775 14.2349 16.995C14.0598 17.0125 13.8833 16.9835 13.723 16.911L9.49998 14.997L5.27698 16.911C5.11671 16.9835 4.94014 17.0125 4.7651 16.995C4.59005 16.9775 4.42272 16.9141 4.28 16.8112C4.13728 16.7084 4.02422 16.5697 3.95223 16.4092C3.88024 16.2487 3.85187 16.072 3.86998 15.897L4.35798 11.204L1.25198 7.702C1.13612 7.57136 1.05648 7.41265 1.02099 7.24168C0.985502 7.0707 0.995406 6.89341 1.04972 6.72745C1.10402 6.56148 1.20085 6.41264 1.33055 6.29571C1.46024 6.17879 1.6183 6.09787 1.78898 6.061L6.31598 5.085L8.62998 1.007C8.7172 0.853092 8.84367 0.725074 8.99651 0.636005C9.14935 0.546936 9.32309 0.500005 9.49998 0.5ZM9.49998 3.526L7.83398 6.462C7.76444 6.58455 7.66978 6.69102 7.55621 6.77443C7.44264 6.85784 7.31273 6.91631 7.17498 6.946L3.88398 7.656L6.14598 10.206C6.23806 10.3099 6.30748 10.4319 6.34983 10.5641C6.39219 10.6963 6.40654 10.8359 6.39198 10.974L6.03998 14.37L9.08698 12.989C9.21672 12.9302 9.35753 12.8997 9.49998 12.8997C9.64244 12.8997 9.78325 12.9302 9.91298 12.989L12.96 14.369L12.607 10.974C12.5927 10.836 12.6073 10.6966 12.6498 10.5645C12.6923 10.4325 12.7619 10.3107 12.854 10.207L15.116 7.656L11.825 6.946C11.6871 6.91644 11.557 6.85803 11.4432 6.77461C11.3295 6.6912 11.2346 6.58466 11.165 6.462L9.49998 3.526Z" fill="#AC9168"/>
<path fill-rule="evenodd" clip-rule="evenodd" d="M7.99994 7.23867e-08C8.08834 -4.74883e-05 8.17518 0.0233426 8.25159 0.0677865C8.32801 0.112231 8.39127 0.176139 8.43494 0.253L10.8599 4.527L15.6049 5.55C15.6903 5.56828 15.7694 5.6086 15.8344 5.66694C15.8993 5.72528 15.9479 5.79961 15.9752 5.88254C16.0025 5.96547 16.0076 6.05411 15.99 6.13963C15.9724 6.22515 15.9328 6.30457 15.8749 6.37L12.6219 10.037L13.1319 14.948C13.141 15.0354 13.1268 15.1237 13.0908 15.2039C13.0548 15.2841 12.9983 15.3534 12.927 15.4048C12.8558 15.4562 12.7722 15.4879 12.6847 15.4967C12.5973 15.5055 12.5091 15.4911 12.4289 15.455L7.99994 13.448L3.57094 15.455C3.49079 15.4914 3.40244 15.506 3.31485 15.4973C3.22725 15.4886 3.1435 15.4569 3.07206 15.4055C3.00063 15.354 2.94405 15.2846 2.90803 15.2043C2.87201 15.124 2.85784 15.0356 2.86694 14.948L3.37694 10.038L0.126944 6.37C0.0691343 6.30464 0.029435 6.22529 0.0117921 6.13984C-0.00585077 6.05438 -0.000823068 5.9658 0.0263755 5.88289C0.053574 5.79998 0.101996 5.72563 0.16683 5.66723C0.231664 5.60883 0.310652 5.56842 0.395944 5.55L5.13994 4.527L7.56494 0.253C7.60861 0.176139 7.67188 0.112231 7.7483 0.0677865C7.82471 0.0233426 7.91154 -4.74883e-05 7.99994 7.23867e-08ZM7.99994 1.513L5.89994 5.215C5.86512 5.27633 5.81771 5.3296 5.76084 5.37131C5.70396 5.41301 5.63891 5.44222 5.56994 5.457L1.44194 6.347L4.27194 9.538C4.31798 9.58996 4.35269 9.65094 4.37387 9.71705C4.39505 9.78316 4.40222 9.85296 4.39494 9.922L3.95194 14.185L7.79394 12.445C7.85868 12.4157 7.9289 12.4006 7.99994 12.4006C8.07099 12.4006 8.14121 12.4157 8.20594 12.445L12.0479 14.185L11.6049 9.922C11.5977 9.85296 11.6048 9.78316 11.626 9.71705C11.6472 9.65094 11.6819 9.58996 11.7279 9.538L14.5579 6.347L10.4299 5.457C10.361 5.44222 10.2959 5.41301 10.2391 5.37131C10.1822 5.3296 10.1348 5.27633 10.0999 5.215L7.99994 1.513Z" fill="#AC9168"/>
</svg>
