<svg width="18" height="17" viewBox="0 0 18 17" fill="none" xmlns="http://www.w3.org/2000/svg">
<path opacity="0.2" fill-rule="evenodd" clip-rule="evenodd" d="M9.5 13.9L4.865 16L5.398 10.87L2 7.04L6.965 5.97L9.5 1.5L12.035 5.969L17 7.039L13.602 10.87L14.135 16L9.5 13.9Z" fill="#AC9168" stroke="#AC9168" stroke-linecap="round" stroke-linejoin="round"/>
<path fill-rule="evenodd" clip-rule="evenodd" d="M3.57095 15.455L7.99995 13.448L12.429 15.455C12.5091 15.4914 12.5975 15.506 12.6851 15.4973C12.7727 15.4886 12.8564 15.4569 12.9278 15.4054C12.9993 15.354 13.0559 15.2846 13.0919 15.2043C13.1279 15.124 13.1421 15.0355 13.133 14.948L12.623 10.038L15.874 6.36999C15.9318 6.30463 15.9715 6.22528 15.9891 6.13982C16.0067 6.05437 16.0017 5.96578 15.9745 5.88287C15.9473 5.79996 15.8989 5.72561 15.8341 5.66721C15.7692 5.60882 15.6902 5.5684 15.605 5.54999L10.86 4.52699L8.43495 0.252986C8.39135 0.176037 8.3281 0.112033 8.25168 0.0675031C8.17526 0.0229734 8.0884 -0.000488281 7.99995 -0.000488281C7.91151 -0.000488281 7.82464 0.0229734 7.74822 0.0675031C7.6718 0.112033 7.60856 0.176037 7.56495 0.252986L5.13995 4.52699L0.394953 5.54999C0.309578 5.56826 0.230478 5.60858 0.165523 5.66692C0.100568 5.72527 0.0520223 5.7996 0.0247161 5.88253C-0.00259002 5.96546 -0.00770455 6.05409 0.00988126 6.13961C0.0274671 6.22513 0.0671401 6.30456 0.124953 6.36999L3.37795 10.037L2.86795 14.948C2.85895 15.0354 2.87314 15.1237 2.90912 15.2039C2.94509 15.2841 3.00156 15.3534 3.07285 15.4048C3.14414 15.4562 3.22772 15.4879 3.31516 15.4967C3.40261 15.5055 3.49084 15.4911 3.57095 15.455ZM7.79395 12.445L3.95195 14.185L4.39495 9.92199C4.40223 9.85295 4.39505 9.78315 4.37388 9.71704C4.3527 9.65092 4.31799 9.58995 4.27195 9.53799L1.44195 6.34699L5.56995 5.45699C5.63892 5.4422 5.70397 5.413 5.76084 5.37129C5.81772 5.32958 5.86513 5.27632 5.89995 5.21499L7.99995 1.51299L10.1 5.21499C10.1348 5.27632 10.1822 5.32958 10.2391 5.37129C10.2959 5.413 10.361 5.4422 10.43 5.45699L14.558 6.34699L11.728 9.53799C11.6819 9.58995 11.6472 9.65092 11.626 9.71704C11.6049 9.78315 11.5977 9.85295 11.605 9.92199L12.048 14.185L8.20595 12.445C8.14122 12.4157 8.071 12.4006 7.99995 12.4006C7.92891 12.4006 7.85869 12.4157 7.79395 12.445Z" fill="#AC9168"/>
</svg>
